# xmcd CD database file
#
# Track frame offsets:
#	150
#	23254
#	44063
#	65471
#	81069
#	104922
#	130914
#	147693
#	165969
#	188199
#	205834
#	236775
#
# Disc length: 3486 seconds
#
# Revision: 0
# Processed by: cddbd v1.5.2PL0 Copyright (c) Steve Scherf et al.
# Submitted via: CDex 1.51
#
DISCID=ab0d9c0c
DTITLE=Lee Ritenour - Rhythm sessions
DYEAR=20122
DGENRE=Jazz
TTITLE0=The village
TTITLE1=River man
TTITLE2=Fat Albert Rotunda
TTITLE3=800 streets by feet
TTITLE4=Children's song #1
TTITLE5=LA by bike
TTITLE6=Maybe tomorrow
TTITLE7=Spam-boo-limbo
TTITLE8=July
TTITLE9=Rose pedals
TTITLE10=Dolphins don't dance
TTITLE11=Punta del soul
EXTD=YEAR: 20122
EXTT0=
EXTT1=
EXTT2=
EXTT3=
EXTT4=
EXTT5=
EXTT6=
EXTT7=
EXTT8=
EXTT9=
EXTT10=
EXTT11=
PLAYORDER=
